# xmcd CD database file
#
# Track frame offsets:
#	150
#	21482
#	35540
#	50852
#	74657
#	92662
#	109130
#	129702
#	145395
#	163780
#
# Disc length: 2381 seconds
#
# Revision: 2
# Processed by: cddbd v1.4b41PL1 Copyright (c) Steve Scherf et al.
# Submitted via: Feurio! 1.52 - http://www.feurio.com
#
DISCID=9c094b0a
DTITLE=Louis Tillett and Charlie Owen - Midnight Rain
DYEAR=1900
DGENRE=
TTITLE0=Around You
TTITLE1=Summer
TTITLE2=Alligator Wine
TTITLE3=An Ancient Song
TTITLE4=Last Thing That I´ll Say
TTITLE5=Gloomy Sunday
TTITLE6=Midnight Rain
TTITLE7=When
TTITLE8=Clock On The Wall
TTITLE9=I´m Down
EXTD=
EXTT0=
EXTT1=
EXTT2=
EXTT3=
EXTT4=
EXTT5=
EXTT6=
EXTT7=
EXTT8=
EXTT9=
PLAYORDER=
